0 Running Bond Wall
0 Name: wall.ldr
0 Author: Generated by scripts/make-demos.mjs
0 // No STEP metas: this model exists to exercise inferred build order.

1 4 -120 0 0 1 0 0 0 1 0 0 0 1 3001.dat
1 15 -40 0 0 1 0 0 0 1 0 0 0 1 3001.dat
1 15 40 0 0 1 0 0 0 1 0 0 0 1 3001.dat
1 15 120 0 0 1 0 0 0 1 0 0 0 1 3001.dat
1 14 -140 -24 0 1 0 0 0 1 0 0 0 1 3003.dat
1 71 -80 -24 0 1 0 0 0 1 0 0 0 1 3001.dat
1 14 0 -24 0 1 0 0 0 1 0 0 0 1 3001.dat
1 71 80 -24 0 1 0 0 0 1 0 0 0 1 3001.dat
1 71 160 -24 0 1 0 0 0 1 0 0 0 1 3001.dat
1 14 180 -24 0 1 0 0 0 1 0 0 0 1 3003.dat
1 71 -120 -48 0 1 0 0 0 1 0 0 0 1 3001.dat
1 71 -40 -48 0 1 0 0 0 1 0 0 0 1 3001.dat
1 1 40 -48 0 1 0 0 0 1 0 0 0 1 3001.dat
1 71 120 -48 0 1 0 0 0 1 0 0 0 1 3001.dat
1 4 -140 -72 0 1 0 0 0 1 0 0 0 1 3003.dat
1 15 -80 -72 0 1 0 0 0 1 0 0 0 1 3001.dat
1 15 0 -72 0 1 0 0 0 1 0 0 0 1 3001.dat
1 15 80 -72 0 1 0 0 0 1 0 0 0 1 3001.dat
1 4 160 -72 0 1 0 0 0 1 0 0 0 1 3001.dat
1 4 180 -72 0 1 0 0 0 1 0 0 0 1 3003.dat
1 14 -120 -96 0 1 0 0 0 1 0 0 0 1 3001.dat
1 71 -40 -96 0 1 0 0 0 1 0 0 0 1 3001.dat
1 71 40 -96 0 1 0 0 0 1 0 0 0 1 3001.dat
1 71 120 -96 0 1 0 0 0 1 0 0 0 1 3001.dat
1 1 -140 -120 0 1 0 0 0 1 0 0 0 1 3003.dat
1 71 -80 -120 0 1 0 0 0 1 0 0 0 1 3001.dat
1 1 0 -120 0 1 0 0 0 1 0 0 0 1 3001.dat
1 71 80 -120 0 1 0 0 0 1 0 0 0 1 3001.dat
1 71 160 -120 0 1 0 0 0 1 0 0 0 1 3001.dat
1 1 180 -120 0 1 0 0 0 1 0 0 0 1 3003.dat
1 15 -120 -144 0 1 0 0 0 1 0 0 0 1 3001.dat
1 15 -40 -144 0 1 0 0 0 1 0 0 0 1 3001.dat
1 4 40 -144 0 1 0 0 0 1 0 0 0 1 3001.dat
1 15 120 -144 0 1 0 0 0 1 0 0 0 1 3001.dat
1 72 -120 -168 0 1 0 0 0 1 0 0 0 1 3020.dat
1 72 -40 -168 0 1 0 0 0 1 0 0 0 1 3020.dat
1 72 40 -168 0 1 0 0 0 1 0 0 0 1 3020.dat
1 72 120 -168 0 1 0 0 0 1 0 0 0 1 3020.dat
